<svg width="200" height="200" viewBox="0 0 200 200" fill="none" xmlns="http://www.w3.org/2000/svg">
<path d="M56.375 96.0875C56.375 98.55 56.625 100.55 57.1 102.025C57.625 103.487 58.3 105.087 59.225 106.825C59.5202 107.284 59.6805 107.817 59.6875 108.362C59.6875 109.025 59.2875 109.7 58.4375 110.363L54.2375 113.163C53.7334 113.526 53.1337 113.735 52.5125 113.763C51.8375 113.763 51.175 113.438 50.5125 112.838C49.6141 111.871 48.8104 110.82 48.1125 109.7C47.3731 108.417 46.6892 107.104 46.0625 105.763C40.8625 111.9 34.35 114.975 26.5 114.975C20.9125 114.975 16.45 113.362 13.2 110.162C9.93752 106.962 8.27502 102.688 8.27502 97.35C8.27502 91.675 10.275 87.075 14.325 83.6C18.3875 80.125 23.775 78.4 30.625 78.4C32.875 78.4 35.2125 78.6 37.675 78.925C40.1375 79.2625 42.675 79.8 45.325 80.4V75.525C45.325 70.45 44.2625 66.9125 42.2 64.85C40.075 62.775 36.475 61.775 31.35 61.775C29.025 61.775 26.6375 62.05 24.175 62.65C21.7284 63.2323 19.3265 63.9884 16.9875 64.9125C16.2324 65.2544 15.4557 65.5467 14.6625 65.7875C14.3188 65.9011 13.9615 65.9683 13.6 65.9875C12.6625 65.9875 12.2 65.3125 12.2 63.9125V60.6375C12.2 59.575 12.325 58.7625 12.6625 58.3125C13.1662 57.6992 13.809 57.2149 14.5375 56.9C16.85 55.7 19.65 54.7 22.9125 53.9C26.1625 53.025 29.625 52.6375 33.2875 52.6375C41.2 52.6375 46.9875 54.4375 50.7125 58.0375C54.375 61.6375 56.2375 67.1125 56.2375 74.4625V96.0875H56.3625H56.375ZM29.3625 106.225C31.55 106.225 33.8125 105.825 36.2125 105.025C38.6125 104.225 40.7375 102.75 42.525 100.75C43.5969 99.522 44.3711 98.0634 44.7875 96.4875C45.1875 94.875 45.4625 92.95 45.4625 90.675V87.875C43.4436 87.3854 41.3987 87.0098 39.3375 86.75C37.2649 86.4819 35.1774 86.3441 33.0875 86.3375C28.625 86.3375 25.375 87.2125 23.175 89.0125C20.975 90.8125 19.925 93.35 19.925 96.6875C19.925 99.8125 20.7125 102.15 22.375 103.762C23.975 105.425 26.3 106.225 29.3625 106.225ZM82.775 113.438C81.575 113.438 80.775 113.238 80.25 112.763C79.7125 112.363 79.25 111.437 78.85 110.162L63.225 58.575C62.9211 57.7099 62.7197 56.8121 62.625 55.9C62.625 54.8375 63.15 54.2375 64.2125 54.2375H70.7375C71.9875 54.2375 72.8625 54.4375 73.325 54.9C73.8625 55.3 74.2625 56.2375 74.6625 57.5L85.8375 101.688L96.2125 57.5C96.5375 56.175 96.9375 55.3 97.475 54.9C98.2735 54.4112 99.2031 54.1799 100.138 54.2375H105.463C106.713 54.2375 107.588 54.4375 108.113 54.9C108.65 55.3 109.113 56.2375 109.388 57.5L119.888 102.225L131.388 57.5C131.601 56.5324 132.062 55.6366 132.725 54.9C133.5 54.4099 134.41 54.178 135.325 54.2375H141.513C142.575 54.2375 143.175 54.775 143.175 55.9C143.175 56.2375 143.1 56.575 143.05 56.975C142.942 57.5423 142.783 58.0988 142.575 58.6375L126.538 110.225C126.15 111.563 125.675 112.438 125.15 112.838C124.395 113.32 123.507 113.552 122.613 113.5H116.9C115.638 113.5 114.775 113.3 114.238 112.838C113.7 112.363 113.238 111.5 112.975 110.162L102.663 67.125L92.4125 110.113C92.0875 111.45 91.6875 112.313 91.1625 112.775C90.625 113.25 89.6875 113.45 88.5 113.45H82.775V113.438ZM168.25 115.238C164.798 115.242 161.358 114.839 158 114.038C154.675 113.238 152.088 112.363 150.35 111.363C149.288 110.763 148.563 110.1 148.288 109.488C148.034 108.899 147.902 108.266 147.9 107.625V104.225C147.9 102.825 148.425 102.15 149.425 102.15C149.833 102.151 150.239 102.218 150.625 102.35C151.025 102.487 151.625 102.75 152.288 103.025C154.538 104.025 157.013 104.825 159.6 105.363C162.263 105.888 164.85 106.163 167.513 106.163C171.713 106.163 174.963 105.425 177.225 103.963C178.312 103.305 179.205 102.37 179.813 101.255C180.421 100.139 180.723 98.8825 180.688 97.6125C180.71 96.755 180.563 95.9016 180.254 95.1013C179.945 94.3011 179.48 93.57 178.888 92.95C177.7 91.675 175.438 90.5375 172.175 89.475L162.525 86.475C157.675 84.9375 154.075 82.6625 151.888 79.6625C149.746 76.8905 148.578 73.4903 148.563 69.9875C148.563 67.1875 149.163 64.7125 150.35 62.575C151.55 60.45 153.15 58.575 155.15 57.1C157.15 55.575 159.4 54.4375 162.063 53.6375C164.725 52.8375 167.513 52.5 170.438 52.5C171.913 52.5 173.438 52.5625 174.9 52.7625C176.425 52.9625 177.825 53.2375 179.225 53.5125C180.55 53.8375 181.825 54.1625 183.013 54.575C184.213 54.975 185.138 55.375 185.813 55.775C186.597 56.1695 187.281 56.7382 187.813 57.4375C188.24 58.0883 188.446 58.86 188.4 59.6375V62.775C188.4 64.175 187.875 64.9125 186.875 64.9125C185.99 64.8114 185.132 64.5397 184.35 64.1125C180.33 62.3307 175.971 61.4436 171.575 61.5125C167.788 61.5125 164.788 62.1125 162.725 63.3875C160.663 64.6375 159.6 66.5875 159.6 69.325C159.6 71.1875 160.263 72.7875 161.6 74.0625C162.925 75.325 165.388 76.5875 168.913 77.725L178.363 80.725C183.15 82.2625 186.613 84.4 188.675 87.1375C190.738 89.875 191.725 93.0125 191.725 96.4875C191.725 99.3625 191.138 101.95 190 104.225C188.823 106.508 187.169 108.512 185.15 110.1C183.088 111.762 180.625 112.975 177.763 113.838C174.763 114.775 171.638 115.238 168.25 115.238Z" fill="#222222"/>
<path fill-rule="evenodd" clip-rule="evenodd" d="M180.813 147.662C158.938 163.875 127.138 172.487 99.8 172.487C61.4875 172.487 26.9625 158.275 0.887514 134.65C-1.17499 132.775 0.687513 130.237 3.13751 131.712C31.35 148.125 66.1375 158.075 102.138 158.075C126.4 158.075 153.075 153 177.625 142.587C181.288 140.925 184.413 144.987 180.813 147.662Z" fill="#444444"/>
<path fill-rule="evenodd" clip-rule="evenodd" d="M189.925 137.25C187.138 133.663 171.438 135.525 164.325 136.388C162.2 136.663 161.863 134.788 163.788 133.388C176.288 124.575 196.85 127.113 199.238 130.05C201.638 133.05 198.575 153.675 186.863 163.55C185.075 165.088 183.35 164.3 184.15 162.3C186.8 155.675 192.725 140.8 189.925 137.263V137.25Z" fill="#444444"/>
</svg>
