<svg width="340" height="340" viewBox="0 0 340 340" fill="none" xmlns="http://www.w3.org/2000/svg">
<g clip-path="url(#clip0_65_581)">
<path fill-rule="evenodd" clip-rule="evenodd" d="M316.567 161.675C316.262 161.736 315.955 162.41 315.955 162.777C315.894 165.229 315.833 171.725 315.833 176.137C315.833 176.259 316.016 176.504 316.2 176.504C317.119 176.566 319.325 176.627 321.225 176.627C323.86 176.627 325.392 176.259 326.251 175.892C328.456 174.789 329.498 172.399 329.498 169.763C329.498 163.82 325.331 161.552 319.141 161.552C318.712 161.491 317.488 161.491 316.567 161.675ZM332.379 189.067C332.379 183 327.905 179.63 319.816 179.63C319.448 179.63 316.874 179.568 316.261 179.691C316.077 179.752 315.833 179.875 315.833 180.059C315.833 184.409 315.771 191.335 315.955 194.031C316.077 195.195 316.936 196.85 317.978 197.34C319.08 197.953 321.593 198.075 323.309 198.075C328.15 198.075 332.379 195.379 332.379 189.067ZM304.067 158.304C304.679 158.304 306.517 158.488 311.236 158.488C315.71 158.488 319.264 158.366 323.615 158.366C328.946 158.366 336.3 160.265 336.3 168.232C336.3 172.154 333.542 175.279 329.927 176.811C329.744 176.872 329.744 176.995 329.927 177.056C335.074 178.343 339.61 181.529 339.61 187.535C339.61 193.418 335.933 197.156 330.601 199.485C327.353 200.894 323.309 201.384 319.203 201.384C316.077 201.384 307.682 201.017 303.025 201.14C302.535 200.955 303.454 198.749 303.882 198.382C304.986 198.32 305.843 198.259 307.008 197.891C308.663 197.463 308.846 196.972 309.091 194.46C309.214 192.315 309.214 184.716 309.214 179.323C309.214 171.908 309.276 166.884 309.214 164.432C309.153 162.533 308.479 161.92 307.131 161.552C306.088 161.368 304.373 161.123 302.963 160.939C302.656 160.633 303.698 158.549 304.067 158.304ZM268.707 196.421C270.178 197.584 273.059 198.075 275.632 198.075C278.941 198.075 282.25 197.463 285.437 194.582C288.685 191.641 290.952 187.106 290.952 179.875C290.952 172.95 288.317 167.312 282.924 164.003C279.861 162.103 275.939 161.307 271.404 161.307C270.056 161.307 268.769 161.368 267.972 161.736C267.788 161.859 267.36 162.41 267.36 162.716C267.237 163.942 267.237 173.379 267.237 178.894C267.237 184.593 267.237 192.56 267.36 193.479C267.36 194.399 267.788 195.808 268.708 196.421H268.707ZM254.796 158.304C255.961 158.304 260.434 158.488 262.579 158.488C266.44 158.488 269.198 158.304 276.49 158.304C282.618 158.304 287.766 159.959 291.442 163.084C295.916 166.945 298.245 172.276 298.245 178.772C298.245 188.025 294.016 193.357 289.788 196.421C285.56 199.546 280.044 201.384 272.201 201.384C268.034 201.384 260.864 201.262 254.919 201.2H254.858C254.552 200.649 255.348 198.504 255.838 198.443C257.432 198.259 257.861 198.197 258.658 197.892C259.944 197.401 260.19 196.727 260.374 194.46C260.557 190.231 260.496 185.145 260.496 179.384C260.496 175.279 260.557 167.251 260.434 164.677C260.251 162.533 259.332 161.981 257.493 161.613C256.574 161.43 255.348 161.184 253.633 161.001C253.387 160.571 254.49 158.671 254.796 158.304Z" fill="#544E48"/>
<path fill-rule="evenodd" clip-rule="evenodd" d="M180.647 198.81C179.115 198.626 178.012 198.382 176.664 197.769C176.48 197.646 176.173 197.034 176.173 196.788C176.051 194.643 176.051 188.515 176.051 184.41C176.051 181.1 175.5 178.22 174.09 176.198C172.435 173.869 170.046 172.521 166.981 172.521C164.285 172.521 160.669 174.359 157.666 176.933C157.605 176.994 157.115 177.424 157.176 176.749C157.176 176.075 157.299 174.727 157.36 173.808C157.422 172.95 156.931 172.521 156.931 172.521C154.97 173.502 149.455 174.788 147.433 174.972C145.962 175.279 145.594 176.688 147.127 177.178H147.188C148.842 177.669 149.945 178.22 150.803 178.772C151.416 179.262 151.354 179.936 151.354 180.488C151.416 185.083 151.416 192.131 151.232 195.992C151.171 197.524 150.742 198.075 149.639 198.32L149.761 198.259C148.903 198.443 148.229 198.626 147.187 198.749C146.82 199.117 146.82 201.078 147.187 201.507C147.861 201.507 151.416 201.323 154.358 201.323C158.402 201.323 160.486 201.507 161.527 201.507C161.956 201.017 162.079 199.178 161.834 198.749C160.669 198.688 159.811 198.566 159.015 198.32C157.912 198.074 157.605 197.524 157.544 196.237C157.422 192.988 157.422 186.125 157.422 181.468C157.422 180.181 157.789 179.568 158.156 179.201C159.566 177.975 161.834 177.117 163.856 177.117C165.817 177.117 167.103 177.73 168.084 178.527C169.432 179.629 169.861 181.223 170.045 182.387C170.351 185.022 170.229 190.231 170.229 194.766C170.229 197.217 170.045 197.83 169.127 198.136C168.697 198.32 167.594 198.566 166.307 198.687C165.878 199.117 166.001 201.017 166.307 201.446C168.084 201.446 170.168 201.262 173.232 201.262C177.031 201.262 179.483 201.446 180.464 201.446C180.769 201.078 180.892 199.301 180.647 198.81ZM197.622 175.402C194.374 175.402 192.352 177.914 192.352 181.836C192.352 185.819 194.129 190.415 199.154 190.415C200.012 190.415 201.605 190.047 202.34 189.189C203.505 188.087 204.301 185.88 204.301 183.551C204.301 178.465 201.789 175.402 197.622 175.402ZM197.193 202.487C195.968 202.487 195.109 202.855 194.558 203.162C191.984 204.815 190.82 206.409 190.82 208.31C190.82 210.086 191.494 211.495 192.965 212.721C194.742 214.253 197.193 214.989 200.318 214.989C206.569 214.989 209.326 211.618 209.326 208.31C209.326 205.98 208.162 204.448 205.772 203.591C204.056 202.855 200.931 202.487 197.193 202.487ZM197.622 218.421C193.884 218.421 191.187 217.624 188.859 215.847C186.591 214.131 185.611 211.557 185.611 209.78C185.611 209.29 185.734 207.941 186.837 206.716C187.51 205.98 188.982 204.571 192.475 202.181C192.597 202.12 192.658 202.059 192.658 201.935C192.658 201.813 192.535 201.69 192.413 201.63C189.533 200.527 188.675 198.749 188.429 197.769V197.646C188.369 197.278 188.246 196.911 188.798 196.543C189.227 196.237 189.84 195.869 190.513 195.441C191.555 194.827 192.658 194.153 193.332 193.601C193.455 193.479 193.455 193.357 193.455 193.234C193.455 193.111 193.332 192.988 193.209 192.928C188.92 191.518 186.776 188.331 186.776 183.551C186.776 180.426 188.185 177.607 190.697 175.83C192.413 174.482 196.703 172.827 199.522 172.827H199.706C202.586 172.889 204.179 173.502 206.446 174.298C207.672 174.727 208.836 174.911 210.43 174.911C212.819 174.911 213.861 174.176 214.719 173.318C214.78 173.44 214.903 173.747 214.964 174.543C215.025 175.34 214.78 176.504 214.167 177.362C213.677 178.036 212.574 178.527 211.471 178.527H211.165C210.062 178.404 209.571 178.281 209.571 178.281L209.326 178.404C209.265 178.527 209.326 178.649 209.388 178.833L209.449 178.956C209.572 179.507 209.817 181.161 209.817 181.591C209.817 186.616 207.794 188.821 205.65 190.476C203.566 192.008 201.176 192.988 198.48 193.234C198.419 193.234 198.174 193.234 197.622 193.295C197.316 193.295 196.887 193.357 196.825 193.357H196.764C196.274 193.479 195.048 194.092 195.048 195.133C195.048 196.052 195.6 197.156 198.235 197.34C198.786 197.401 199.337 197.401 199.951 197.463C203.444 197.707 207.794 198.014 209.817 198.688C212.636 199.729 214.413 202.242 214.413 205.245C214.413 209.781 211.165 214.009 205.772 216.643C203.137 217.808 200.502 218.421 197.622 218.421ZM232.551 175.708C231.265 175.708 230.1 176.014 229.242 176.627C226.853 178.097 225.627 181.039 225.627 185.328C225.627 193.357 229.671 198.995 235.432 198.995C237.148 198.995 238.496 198.504 239.66 197.524C241.437 196.052 242.357 193.111 242.357 189.005C242.357 181.039 238.373 175.708 232.551 175.708ZM233.655 201.936C223.237 201.936 219.499 194.276 219.499 187.106C219.499 182.081 221.521 178.22 225.565 175.462C228.446 173.685 231.878 172.705 234.942 172.705C242.908 172.705 248.485 178.404 248.485 186.616C248.485 192.192 246.279 196.604 242.05 199.301C240.028 200.649 236.536 201.936 233.655 201.936ZM124.453 175.708C123.166 175.708 122.002 176.014 121.143 176.627C118.754 178.097 117.528 181.039 117.528 185.328C117.528 193.357 121.572 198.995 127.333 198.995C129.049 198.995 130.397 198.504 131.561 197.524C133.338 196.052 134.258 193.111 134.258 189.005C134.258 181.039 130.336 175.708 124.453 175.708ZM125.556 201.936C115.138 201.936 111.4 194.276 111.4 187.106C111.4 182.081 113.422 178.22 117.466 175.462C120.347 173.685 123.779 172.705 126.843 172.705C134.809 172.705 140.385 178.404 140.385 186.616C140.385 192.192 138.179 196.604 133.951 199.301C131.99 200.649 128.497 201.936 125.556 201.936ZM55.5116 201.323C55.3888 201.14 55.2659 200.588 55.3277 199.914C55.3277 199.423 55.4505 199.117 55.5116 198.995C56.7986 198.81 57.4726 198.626 58.2077 198.443C59.4336 198.136 59.9237 197.463 59.9848 195.931C60.1694 192.254 60.1694 185.267 60.1076 180.426V180.304C60.1076 179.752 60.1076 179.078 59.4336 178.588C58.4528 177.975 57.2887 177.424 55.7567 176.994C55.2055 176.811 54.8376 176.504 54.8987 176.137C54.8987 175.769 55.2666 175.34 56.0635 175.217C58.0855 175.034 63.3549 173.747 65.4387 172.827C65.5616 172.95 65.7455 173.318 65.7455 173.808L65.6844 174.482C65.6227 175.156 65.5616 175.953 65.5616 176.749C65.5616 176.994 65.8073 177.178 66.0516 177.178C66.1745 177.178 66.2973 177.117 66.4195 177.056C70.3415 173.992 73.8955 172.889 75.7337 172.889C78.7372 172.889 81.0661 174.298 82.8431 177.24C82.9653 177.424 83.0882 177.485 83.2721 177.485C83.3943 177.485 83.5776 177.424 83.6393 177.301C87.2552 174.543 90.871 172.889 93.2603 172.889C98.9593 172.889 102.33 177.117 102.33 184.287C102.33 186.309 102.33 188.944 102.269 191.335C102.269 193.479 102.208 195.44 102.208 196.85C102.208 197.155 102.636 198.136 103.31 198.32C104.168 198.749 105.333 198.933 106.865 199.178H106.926C107.049 199.607 106.804 201.2 106.559 201.507C106.191 201.507 105.639 201.507 105.027 201.446C103.476 201.365 101.922 201.324 100.369 201.323C96.57 201.323 94.609 201.384 92.7084 201.507C92.5869 201.017 92.5252 199.546 92.7084 199.178C93.8121 198.995 94.3633 198.81 95.038 198.627C96.2638 198.259 96.57 197.707 96.6317 196.114C96.6317 194.95 96.8761 185.022 96.5082 182.632C96.141 180.181 94.3022 177.301 90.2574 177.301C88.7254 177.301 86.3361 177.914 84.0072 179.691C83.885 179.813 83.7615 180.12 83.7615 180.304V180.365C84.0072 181.652 84.0072 183.123 84.0072 185.39V189.373C84.0072 192.131 83.9455 194.705 84.0072 196.665C84.0072 198.014 84.8041 198.32 85.4781 198.566C85.846 198.626 86.0904 198.688 86.3972 198.749C86.9484 198.872 87.5002 198.995 88.3582 199.178C88.481 199.424 88.481 200.22 88.2971 200.894C88.2353 201.262 88.1125 201.445 88.0514 201.507C85.9682 201.446 83.8233 201.384 80.6982 201.384C79.7791 201.384 78.1854 201.446 76.8373 201.446C75.7337 201.446 74.6924 201.507 74.0802 201.507C74.0184 201.384 73.8955 200.956 73.8955 200.281C73.8955 199.73 74.0184 199.301 74.1413 199.178C74.4474 199.117 74.6924 199.056 74.9992 199.056C75.7337 198.933 76.3473 198.81 76.9595 198.688C78.0021 198.382 78.3693 197.83 78.4304 196.482C78.6144 193.418 78.7983 184.655 78.3693 182.448C77.6342 178.894 75.6121 177.117 72.3636 177.117C70.4643 177.117 68.0737 178.036 66.1134 179.508C65.8066 179.752 65.5616 180.365 65.5616 180.916V184.532C65.5616 188.944 65.5616 194.46 65.6227 196.85C65.6844 197.584 65.9288 198.443 67.3386 198.749C67.6454 198.81 68.1355 198.933 68.7484 198.995L69.8507 199.178C69.9743 199.546 69.9125 201.017 69.6675 201.507C69.0545 201.507 68.3194 201.446 67.4608 201.446C66.1745 201.384 64.5196 201.323 62.6815 201.323C60.5366 201.323 59.0046 201.384 57.7788 201.446C56.9208 201.323 56.2468 201.323 55.5116 201.323Z" fill="#444444"/>
<path fill-rule="evenodd" clip-rule="evenodd" d="M23.2774 216.031L20.7652 215.172C20.7652 215.172 21.072 202.365 16.4754 201.446C13.4121 197.891 16.9668 50.6952 27.9969 200.955C27.9969 200.955 24.1971 202.854 23.5231 206.103C22.7873 209.29 23.2774 216.031 23.2774 216.031Z" fill="white"/>
<path fill-rule="evenodd" clip-rule="evenodd" d="M23.2774 216.031L20.7652 215.172C20.7652 215.172 21.072 202.365 16.4754 201.446C13.4121 197.891 16.9668 50.6952 27.9969 200.955C27.9969 200.955 24.1971 202.854 23.5231 206.103C22.7873 209.29 23.2774 216.031 23.2774 216.031Z" fill="#A1A1A1"/>
<path fill-rule="evenodd" clip-rule="evenodd" d="M24.6261 203.652C24.6261 203.652 46.6265 189.189 41.478 159.1C36.5148 137.224 24.81 130.054 23.5231 127.296C22.1139 125.335 20.7652 121.904 20.7652 121.904L21.685 182.755C21.685 182.816 19.7851 201.384 24.6268 203.653" fill="white"/>
<path fill-rule="evenodd" clip-rule="evenodd" d="M24.6261 203.652C24.6261 203.652 46.6265 189.189 41.478 159.1C36.5148 137.224 24.81 130.054 23.5231 127.296C22.1139 125.335 20.7652 121.904 20.7652 121.904L21.685 182.755C21.685 182.816 19.7851 201.384 24.6268 203.653" fill="#888888"/>
<path fill-rule="evenodd" clip-rule="evenodd" d="M19.4789 204.448C19.4789 204.448 -1.1734 190.353 0.0524598 165.535C1.21656 140.717 15.8014 128.522 18.6203 126.316C20.4591 124.355 20.5202 123.619 20.643 121.658C21.93 124.416 21.685 162.9 21.8682 167.435C22.4194 184.9 20.8881 201.14 19.4789 204.448Z" fill="white"/>
<path fill-rule="evenodd" clip-rule="evenodd" d="M19.4789 204.448C19.4789 204.448 -1.1734 190.353 0.0524598 165.535C1.21656 140.717 15.8014 128.522 18.6203 126.316C20.4591 124.355 20.5202 123.619 20.643 121.658C21.93 124.416 21.685 162.9 21.8682 167.435C22.4194 184.9 20.8881 201.14 19.4789 204.448Z" fill="#AAAAAA"/>
</g>
<defs>
<clipPath id="clip0_65_581">
<rect width="340" height="340" fill="white"/>
</clipPath>
</defs>
</svg>
