<svg width="400" height="122" viewBox="0 0 400 122" fill="none" xmlns="http://www.w3.org/2000/svg">
<g clip-path="url(#clip0_65_591)">
<mask id="mask0_65_591" style="mask-type:alpha" maskUnits="userSpaceOnUse" x="0" y="0" width="122" height="122">
<path d="M60.7083 121.417C94.2365 121.417 121.417 94.2365 121.417 60.7083C121.417 27.18 94.2365 0 60.7083 0C27.18 0 0 27.18 0 60.7083C0 94.2365 27.18 121.417 60.7083 121.417Z" fill="black"/>
</mask>
<g mask="url(#mask0_65_591)">
<path d="M60.7083 121.417C94.2365 121.417 121.417 94.2365 121.417 60.7083C121.417 27.18 94.2365 0 60.7083 0C27.18 0 0 27.18 0 60.7083C0 94.2365 27.18 121.417 60.7083 121.417Z" fill="#444444"/>
<path d="M100.849 106.253L46.6388 36.4249H36.4249V84.9713H44.596V46.8017L94.4344 111.194C96.6833 109.689 98.8256 108.037 100.849 106.253Z" fill="url(#paint0_linear_65_591)"/>
<path d="M85.6661 36.4249H77.5717V84.9915H85.6661V36.4249Z" fill="url(#paint1_linear_65_591)"/>
</g>
</g>
<g clip-path="url(#clip1_65_591)">
<path d="M310.907 34.4237H357.199V42.968H338.835V87.9184H329.653V42.968H310.907V34.4237Z" fill="#444444"/>
<path d="M234.774 34.4237V42.968H197.668V56.7132H227.508V65.2574H197.668V79.3741H234.774V87.9184H188.486V42.968H188.482V34.4237H234.774Z" fill="#444444"/>
<path d="M257.889 34.446H245.872L288.912 87.9408H300.963L279.441 61.2118L300.929 34.4869L288.912 34.5054L273.425 53.7402L257.889 34.446Z" fill="#444444"/>
<path d="M270.219 72.6576L264.202 65.1757L245.838 87.9815H257.889L270.219 72.6576Z" fill="#444444"/>
<path fill-rule="evenodd" clip-rule="evenodd" d="M188.807 87.9184L145.71 34.4014H134.233V87.8961H143.415V45.8358L177.273 87.9184H188.807Z" fill="#444444"/>
<path d="M359.263 87.5917C358.59 87.5917 358.018 87.3587 357.539 86.8928C357.06 86.4269 356.824 85.8629 356.83 85.1947C356.824 84.5448 357.06 83.9869 357.539 83.521C358.018 83.0551 358.59 82.8221 359.263 82.8221C359.91 82.8221 360.476 83.0551 360.954 83.521C361.44 83.9869 361.682 84.5448 361.689 85.1947C361.682 85.636 361.57 86.0406 361.346 86.4023C361.116 86.7702 360.824 87.0584 360.457 87.2668C360.096 87.4814 359.698 87.5917 359.263 87.5917Z" fill="#444444"/>
<path d="M374.934 65.0559H379.003V80.7317C378.997 82.1723 378.685 83.4046 378.076 84.4407C377.46 85.4767 376.608 86.2674 375.513 86.8253C374.424 87.3771 373.149 87.6591 371.699 87.6591C370.374 87.6591 369.186 87.42 368.128 86.9541C367.071 86.4882 366.231 85.7893 365.615 84.8697C364.992 83.9501 364.687 82.8038 364.687 81.4305H368.763C368.769 82.0314 368.906 82.5524 369.167 82.9876C369.428 83.4229 369.789 83.7539 370.25 83.9869C370.716 84.2199 371.251 84.3364 371.854 84.3364C372.508 84.3364 373.068 84.2015 373.522 83.9256C373.976 83.6558 374.324 83.2513 374.567 82.7118C374.803 82.1785 374.928 81.5163 374.934 80.7317V65.0559Z" fill="#444444"/>
<path d="M395.744 71.1864C395.645 70.2362 395.209 69.4944 394.451 68.9672C393.685 68.4338 392.696 68.1702 391.483 68.1702C390.631 68.1702 389.897 68.299 389.287 68.5503C388.677 68.8078 388.204 69.151 387.881 69.5863C387.558 70.0216 387.396 70.5182 387.383 71.0761C387.383 71.542 387.495 71.9466 387.713 72.2838C387.931 72.6271 388.223 72.9152 388.602 73.1482C388.975 73.3873 389.392 73.5834 389.847 73.7428C390.307 73.9022 390.768 74.0371 391.228 74.1475L393.349 74.6685C394.202 74.8647 395.029 75.1284 395.819 75.4655C396.609 75.7966 397.325 76.2196 397.953 76.7284C398.581 77.2372 399.079 77.8503 399.446 78.5676C399.813 79.2848 400 80.1247 400 81.0933C400 82.3991 399.664 83.5455 398.986 84.5386C398.308 85.5256 397.331 86.2981 396.049 86.856C394.774 87.4078 393.231 87.6897 391.415 87.6897C389.66 87.6897 388.13 87.42 386.842 86.8806C385.548 86.3472 384.54 85.5624 383.812 84.5325C383.084 83.5026 382.692 82.2458 382.636 80.7684H386.668C386.724 81.5408 386.973 82.1846 387.396 82.7056C387.825 83.2206 388.385 83.6007 389.069 83.8582C389.76 84.1095 390.531 84.2383 391.384 84.2383C392.273 84.2383 393.057 84.1033 393.735 83.8397C394.407 83.5761 394.936 83.2084 395.315 82.7302C395.701 82.2581 395.894 81.7002 395.9 81.0627C395.894 80.4803 395.719 79.9959 395.384 79.6158C395.042 79.2358 394.569 78.917 393.965 78.6595C393.356 78.402 392.646 78.1691 391.837 77.9668L389.262 77.3169C387.402 76.8449 385.927 76.1276 384.851 75.1651C383.769 74.2026 383.233 72.9275 383.233 71.3274C383.233 70.0155 383.594 68.863 384.322 67.876C385.044 66.889 386.033 66.1226 387.284 65.577C388.54 65.0253 389.959 64.7555 391.539 64.7555C393.144 64.7555 394.55 65.0253 395.763 65.577C396.976 66.1226 397.929 66.8828 398.619 67.8514C399.309 68.82 399.67 69.9297 399.689 71.1864H395.744Z" fill="#444444"/>
</g>
<defs>
<linearGradient id="paint0_linear_65_591" x1="73.5244" y1="78.5834" x2="97.4705" y2="108.263" gradientUnits="userSpaceOnUse">
<stop stop-color="white"/>
<stop offset="1" stop-color="white" stop-opacity="0"/>
</linearGradient>
<linearGradient id="paint1_linear_65_591" x1="81.6189" y1="36.4249" x2="81.4833" y2="72.091" gradientUnits="userSpaceOnUse">
<stop stop-color="white"/>
<stop offset="1" stop-color="white" stop-opacity="0"/>
</linearGradient>
<clipPath id="clip0_65_591">
<rect width="121.417" height="121.417" fill="white"/>
</clipPath>
<clipPath id="clip1_65_591">
<rect width="265.767" height="53.2884" fill="white" transform="translate(134.233 34.4014)"/>
</clipPath>
</defs>
</svg>
