<svg width="320" height="320" viewBox="0 0 320 320" fill="none" xmlns="http://www.w3.org/2000/svg">
<path d="M158.194 257.559C157.111 257.559 156.099 257.27 155.16 256.764L145.553 251.058C144.108 250.263 144.831 249.974 145.264 249.83C147.214 249.18 147.576 249.035 149.598 247.88C149.815 247.735 150.104 247.808 150.321 247.952L157.689 252.358C157.977 252.503 158.339 252.503 158.555 252.358L187.377 235.672C187.666 235.528 187.811 235.238 187.811 234.878V201.578C187.811 201.216 187.666 200.928 187.377 200.783L158.555 184.169C158.266 184.024 157.905 184.024 157.689 184.169L128.867 200.783C128.578 200.927 128.433 201.288 128.433 201.577V234.877C128.433 235.166 128.578 235.527 128.867 235.672L136.741 240.223C141.002 242.389 143.675 239.861 143.675 237.333V204.466C143.675 204.033 144.036 203.599 144.542 203.599H148.226C148.659 203.599 149.092 203.961 149.092 204.466V237.333C149.092 243.039 145.986 246.363 140.569 246.363C138.907 246.363 137.607 246.363 133.923 244.556L126.339 240.223C124.461 239.139 123.305 237.116 123.305 234.949V201.649C123.305 199.483 124.461 197.459 126.339 196.376L155.16 179.69C156.966 178.679 159.422 178.679 161.228 179.69L190.049 196.376C191.927 197.459 193.084 199.483 193.084 201.649V234.949C193.084 237.116 191.927 239.139 190.049 240.223L161.228 256.909C160.289 257.343 159.205 257.559 158.194 257.559ZM167.079 234.661C154.438 234.661 151.837 228.882 151.837 223.97C151.837 223.536 152.199 223.103 152.704 223.103H156.461C156.894 223.103 157.255 223.392 157.255 223.826C157.833 227.654 159.494 229.532 167.151 229.532C173.219 229.532 175.82 228.159 175.82 224.909C175.82 223.031 175.097 221.659 165.634 220.719C157.761 219.924 152.849 218.191 152.849 211.907C152.849 206.056 157.761 202.588 165.996 202.588C175.241 202.588 179.792 205.767 180.371 212.701C180.371 212.918 180.298 213.134 180.154 213.351C180.009 213.496 179.792 213.64 179.576 213.64H175.819C175.458 213.64 175.097 213.351 175.025 212.99C174.158 209.018 171.919 207.717 165.996 207.717C159.35 207.717 158.555 210.029 158.555 211.762C158.555 213.857 159.494 214.507 168.451 215.663C177.336 216.819 181.526 218.48 181.526 224.692C181.454 231.049 176.253 234.661 167.079 234.661Z" fill="#666666"/>
<path d="M68.7675 127.32C68.7675 126.02 68.045 124.791 66.8893 124.141L36.2618 106.516C35.7556 106.227 35.1781 106.083 34.6006 106.01H34.3112C33.7337 106.01 33.1556 106.227 32.65 106.516L2.02247 124.141C0.866223 124.791 0.144348 126.019 0.144348 127.32L0.216848 174.706C0.216848 175.356 0.578098 176.006 1.1556 176.295C1.73372 176.656 2.4556 176.656 2.96185 176.295L21.165 165.893C22.3206 165.243 23.0431 164.015 23.0431 162.715V140.539C23.0431 139.239 23.765 138.011 24.9212 137.361L32.65 132.882C33.2281 132.521 33.8781 132.376 34.5281 132.376C35.1781 132.376 35.8281 132.521 36.3343 132.882L44.0631 137.361C45.2193 138.011 45.9412 139.238 45.9412 140.539V162.715C45.9412 164.015 46.6637 165.243 47.8193 165.893L66.0225 176.295C66.6006 176.656 67.3225 176.656 67.9006 176.295C68.4787 176.006 68.84 175.356 68.84 174.706L68.7675 127.32ZM215.982 62.0919C215.404 61.8025 214.682 61.8025 214.176 62.0919C213.598 62.4532 213.237 63.0307 213.237 63.6807V110.634C213.237 111.067 213.021 111.5 212.587 111.789C212.154 112.006 211.72 112.006 211.287 111.789L203.63 107.383C203.069 107.064 202.434 106.895 201.788 106.895C201.142 106.895 200.507 107.064 199.946 107.383L169.318 125.081C168.162 125.731 167.44 126.959 167.44 128.259V163.581C167.44 164.881 168.162 166.11 169.318 166.76L199.946 184.458C200.507 184.777 201.142 184.945 201.788 184.945C202.434 184.945 203.069 184.777 203.63 184.458L234.257 166.76C235.413 166.11 236.136 164.882 236.136 163.581V75.5275C236.136 74.155 235.413 72.9275 234.257 72.2769L215.982 62.0919ZM213.165 151.952C213.165 152.313 213.021 152.602 212.731 152.746L202.257 158.814C202.111 158.885 201.951 158.922 201.788 158.922C201.625 158.922 201.464 158.885 201.318 158.814L190.844 152.746C190.555 152.602 190.411 152.241 190.411 151.952V139.816C190.411 139.455 190.555 139.166 190.844 139.022L201.318 132.954C201.464 132.882 201.625 132.845 201.788 132.845C201.951 132.845 202.111 132.882 202.257 132.954L212.731 139.022C213.021 139.166 213.165 139.528 213.165 139.816V151.952ZM317.905 139.528C319.061 138.878 319.711 137.649 319.711 136.349V127.753C319.711 126.453 318.989 125.225 317.905 124.575L287.494 106.95C286.933 106.631 286.298 106.463 285.652 106.463C285.007 106.463 284.372 106.631 283.811 106.95L253.183 124.647C252.027 125.297 251.305 126.525 251.305 127.826V163.148C251.305 164.448 252.027 165.676 253.183 166.326L283.594 183.663C284.75 184.313 286.122 184.313 287.206 183.663L305.625 173.406C306.203 173.117 306.564 172.467 306.564 171.817C306.564 171.167 306.203 170.517 305.625 170.228L274.853 152.53C274.276 152.169 273.914 151.591 273.914 150.941V139.889C273.914 139.239 274.276 138.589 274.853 138.3L284.461 132.81C284.742 132.633 285.067 132.539 285.4 132.539C285.732 132.539 286.057 132.633 286.339 132.81L295.946 138.3C296.524 138.661 296.885 139.239 296.885 139.889V148.558C296.885 149.208 297.246 149.858 297.824 150.146C298.402 150.508 299.124 150.508 299.702 150.146L317.905 139.528Z" fill="#222222"/>
<path d="M285.183 137.866C285.29 137.796 285.416 137.758 285.544 137.758C285.672 137.758 285.798 137.796 285.905 137.866L291.756 141.261C291.973 141.405 292.117 141.622 292.117 141.911V148.701C292.117 148.99 291.973 149.207 291.756 149.351L285.905 152.746C285.798 152.817 285.672 152.854 285.544 152.854C285.416 152.854 285.29 152.817 285.183 152.746L279.332 149.351C279.115 149.207 278.971 148.99 278.971 148.701V141.911C278.971 141.622 279.115 141.405 279.332 141.261L285.183 137.866Z" fill="#666666"/>
<path d="M119.982 107.094C119.421 106.775 118.786 106.607 118.14 106.607C117.494 106.607 116.859 106.775 116.298 107.094L85.8875 124.646C84.7312 125.296 84.0812 126.524 84.0812 127.824V163.003C84.0812 164.303 84.8037 165.531 85.8875 166.181L116.298 183.734C116.859 184.054 117.494 184.222 118.14 184.222C118.786 184.222 119.421 184.054 119.982 183.734L150.393 166.181C151.549 165.531 152.199 164.303 152.199 163.003V127.825C152.199 126.525 151.476 125.297 150.393 124.647L119.982 107.094Z" fill="url(#paint0_linear_65_558)"/>
<mask id="mask0_65_558" style="mask-type:luminance" maskUnits="userSpaceOnUse" x="84" y="106" width="69" height="79">
<path d="M119.982 107.094C119.421 106.775 118.786 106.607 118.14 106.607C117.494 106.607 116.859 106.775 116.298 107.094L85.8875 124.646C84.7312 125.296 84.0812 126.524 84.0812 127.824V163.003C84.0812 164.303 84.8037 165.531 85.8875 166.181L116.298 183.734C116.859 184.054 117.494 184.222 118.14 184.222C118.786 184.222 119.421 184.054 119.982 183.734L150.393 166.181C151.549 165.531 152.199 164.303 152.199 163.003V127.825C152.199 126.525 151.476 125.297 150.393 124.647L119.982 107.094Z" fill="white"/>
</mask>
<g mask="url(#mask0_65_558)">
<path fill-rule="evenodd" clip-rule="evenodd" d="M150.537 166.182C151.404 165.676 152.054 164.809 152.344 163.871L118.826 106.661C117.959 106.516 117.019 106.588 116.226 107.094L85.8868 124.575L118.609 184.241C119.085 184.163 119.547 184.017 119.981 183.808L150.537 166.182Z" fill="url(#paint1_linear_65_558)"/>
<path fill-rule="evenodd" clip-rule="evenodd" d="M150.537 166.182L120.054 183.735C119.624 183.954 119.16 184.101 118.682 184.168L119.26 185.252L153.066 165.677V165.243L152.199 163.798C152.054 164.809 151.404 165.676 150.537 166.182Z" fill="url(#paint2_linear_65_558)"/>
</g>
<defs>
<linearGradient id="paint0_linear_65_558" x1="4728.92" y1="1463.86" x2="1395.62" y2="6701.46" gradientUnits="userSpaceOnUse">
<stop stop-color="#666666"/>
<stop offset="0.3288" stop-color="#666666"/>
<stop offset="0.6352" stop-color="#666666"/>
<stop offset="0.9319" stop-color="#666666"/>
<stop offset="1" stop-color="#666666"/>
</linearGradient>
<linearGradient id="paint1_linear_65_558" x1="-205.792" y1="3988.65" x2="6831.19" y2="3988.65" gradientUnits="userSpaceOnUse">
<stop offset="0.09192" stop-color="#888888"/>
<stop offset="0.2864" stop-color="#66B848"/>
<stop offset="0.5968" stop-color="#54A044"/>
<stop offset="0.8624" stop-color="#41873F"/>
</linearGradient>
<linearGradient id="paint2_linear_65_558" x1="-3452.45" y1="1242.39" x2="3584.46" y2="1242.39" gradientUnits="userSpaceOnUse">
<stop offset="0.09192" stop-color="#6CC04A"/>
<stop offset="0.2864" stop-color="#66B848"/>
<stop offset="0.5968" stop-color="#54A044"/>
<stop offset="0.8624" stop-color="#41873F"/>
</linearGradient>
</defs>
</svg>
