<svg width="400" height="122" viewBox="0 0 100 30" fill="none" xmlns="http://www.w3.org/2000/svg">
<g clip-path="url(#clip0_72_521)">
<mask id="mask0_72_521" style="mask-type:alpha" maskUnits="userSpaceOnUse" x="0" y="0" width="122" height="122">
<path d="M60.7083 121.417C94.2365 121.417 121.417 94.2365 121.417 60.7083C121.417 27.18 94.2365 0 60.7083 0C27.18 0 0 27.18 0 60.7083C0 94.2365 27.18 121.417 60.7083 121.417Z" fill="black"/>
</mask>
<g mask="url(#mask0_72_521)">
<path d="M60.7083 121.417C94.2365 121.417 121.417 94.2365 121.417 60.7083C121.417 27.18 94.2365 0 60.7083 0C27.18 0 0 27.18 0 60.7083C0 94.2365 27.18 121.417 60.7083 121.417Z" fill="#444444"/>
<path d="M100.849 106.253L46.6388 36.425H36.4249V84.9714H44.596V46.8018L94.4344 111.194C96.6833 109.689 98.8256 108.037 100.849 106.253Z" fill="url(#paint0_linear_72_521)"/>
<path d="M85.6661 36.425H77.5717V84.9917H85.6661V36.425Z" fill="url(#paint1_linear_72_521)"/>
</g>
</g>
<g clip-path="url(#clip1_72_521)">
<path d="M310.907 34.4236H357.199V42.9679H338.835V87.9183H329.653V42.9679H310.907V34.4236Z" fill="#444444"/>
<path d="M234.774 34.4236V42.9679H197.668V56.713H227.508V65.2573H197.668V79.374H234.774V87.9183H188.486V42.9679H188.482V34.4236H234.774Z" fill="#444444"/>
<path d="M257.889 34.446H245.872L288.912 87.9408H300.963L279.441 61.2118L300.929 34.4869L288.912 34.5054L273.425 53.7402L257.889 34.446Z" fill="#444444"/>
<path d="M270.219 72.6577L264.202 65.1758L245.838 87.9817H257.889L270.219 72.6577Z" fill="#444444"/>
<path fill-rule="evenodd" clip-rule="evenodd" d="M188.807 87.9184L145.71 34.4014H134.233V87.8961H143.415V45.8358L177.273 87.9184H188.807Z" fill="#444444"/>
<path d="M359.263 87.5918C358.59 87.5918 358.018 87.3589 357.539 86.893C357.06 86.4271 356.824 85.863 356.83 85.1948C356.824 84.545 357.06 83.9871 357.539 83.5212C358.018 83.0553 358.59 82.8223 359.263 82.8223C359.91 82.8223 360.476 83.0553 360.954 83.5212C361.44 83.9871 361.682 84.545 361.689 85.1948C361.682 85.6362 361.57 86.0407 361.346 86.4024C361.116 86.7703 360.824 87.0585 360.457 87.2669C360.096 87.4815 359.698 87.5918 359.263 87.5918Z" fill="#444444"/>
<path d="M374.934 65.0559H379.003V80.7317C378.997 82.1723 378.685 83.4046 378.076 84.4407C377.46 85.4767 376.608 86.2674 375.513 86.8253C374.424 87.3771 373.149 87.6591 371.699 87.6591C370.374 87.6591 369.186 87.42 368.128 86.9541C367.071 86.4882 366.231 85.7893 365.615 84.8697C364.992 83.9501 364.687 82.8038 364.687 81.4305H368.763C368.769 82.0314 368.906 82.5524 369.167 82.9876C369.428 83.4229 369.789 83.7539 370.25 83.9869C370.716 84.2199 371.251 84.3364 371.854 84.3364C372.508 84.3364 373.068 84.2015 373.522 83.9256C373.976 83.6558 374.324 83.2513 374.567 82.7118C374.803 82.1785 374.928 81.5163 374.934 80.7317V65.0559Z" fill="#444444"/>
<path d="M395.744 71.1865C395.645 70.2363 395.209 69.4945 394.451 68.9673C393.685 68.4339 392.696 68.1703 391.483 68.1703C390.631 68.1703 389.897 68.2991 389.287 68.5504C388.677 68.8079 388.204 69.1512 387.881 69.5864C387.558 70.0217 387.396 70.5183 387.383 71.0762C387.383 71.5421 387.495 71.9467 387.713 72.2839C387.931 72.6272 388.223 72.9153 388.602 73.1483C388.975 73.3874 389.392 73.5835 389.847 73.7429C390.307 73.9023 390.768 74.0372 391.228 74.1476L393.349 74.6687C394.202 74.8648 395.029 75.1285 395.819 75.4656C396.609 75.7967 397.325 76.2197 397.953 76.7285C398.581 77.2374 399.079 77.8504 399.446 78.5677C399.813 79.2849 400 80.1248 400 81.0934C400 82.3992 399.664 83.5456 398.986 84.5387C398.308 85.5257 397.331 86.2982 396.049 86.8561C394.774 87.4079 393.231 87.6898 391.415 87.6898C389.66 87.6898 388.13 87.4202 386.842 86.8807C385.548 86.3473 384.54 85.5626 383.812 84.5326C383.084 83.5027 382.692 82.2459 382.636 80.7685H386.668C386.724 81.5409 386.973 82.1847 387.396 82.7058C387.825 83.2207 388.385 83.6008 389.069 83.8583C389.76 84.1096 390.531 84.2384 391.384 84.2384C392.273 84.2384 393.057 84.1035 393.735 83.8399C394.407 83.5763 394.936 83.2085 395.315 82.7303C395.701 82.2582 395.894 81.7004 395.9 81.0628C395.894 80.4804 395.719 79.996 395.384 79.6159C395.042 79.2359 394.569 78.9171 393.965 78.6596C393.356 78.4022 392.646 78.1692 391.837 77.9669L389.262 77.317C387.402 76.845 385.927 76.1278 384.851 75.1653C383.769 74.2028 383.233 72.9276 383.233 71.3276C383.233 70.0156 383.594 68.8631 384.322 67.8761C385.044 66.8891 386.033 66.1228 387.284 65.5771C388.54 65.0254 389.959 64.7556 391.539 64.7556C393.144 64.7556 394.55 65.0254 395.763 65.5771C396.976 66.1228 397.929 66.883 398.619 67.8515C399.309 68.8202 399.67 69.9298 399.689 71.1865H395.744Z" fill="#444444"/>
</g>
<defs>
<linearGradient id="paint0_linear_72_521" x1="73.5244" y1="78.5836" x2="97.4705" y2="108.263" gradientUnits="userSpaceOnUse">
<stop stop-color="white"/>
<stop offset="1" stop-color="white" stop-opacity="0"/>
</linearGradient>
<linearGradient id="paint1_linear_72_521" x1="81.6189" y1="36.425" x2="81.4833" y2="72.0912" gradientUnits="userSpaceOnUse">
<stop stop-color="white"/>
<stop offset="1" stop-color="white" stop-opacity="0"/>
</linearGradient>
<clipPath id="clip0_72_521">
<rect width="121.417" height="121.417" fill="white"/>
</clipPath>
<clipPath id="clip1_72_521">
<rect width="265.767" height="53.2884" fill="white" transform="translate(134.233 34.4014)"/>
</clipPath>
</defs>
</svg>
