<svg width="240" height="240" viewBox="0 0 240 240" fill="none" xmlns="http://www.w3.org/2000/svg">
<path d="M225.195 113.543C224.58 113.498 223.868 113.468 223.148 113.468C219.518 113.468 216.045 114.143 212.85 115.373L213.045 115.305C212.108 115.68 210.607 115.68 210.48 116.873C210.997 117.368 211.073 118.185 211.508 118.875C212.385 120.36 213.465 121.62 214.725 122.67L214.748 122.693C216.06 123.72 217.373 124.718 218.753 125.595C221.19 127.095 223.958 127.988 226.343 129.495C227.7 130.373 229.088 131.49 230.468 132.428C231.15 132.893 231.593 133.74 232.47 134.04V133.853C232.043 133.29 231.908 132.473 231.488 131.85C230.858 131.22 230.235 130.658 229.613 130.043C227.753 127.605 225.6 125.52 223.185 123.78L223.095 123.72C221.093 122.355 216.705 120.443 215.88 118.14L215.76 118.005C217.395 117.773 218.85 117.428 220.253 116.963L220.073 117.015C222.203 116.453 224.153 116.573 226.35 116.025C227.34 115.77 228.345 115.463 229.35 115.148V114.585C228.225 113.46 227.385 111.93 226.223 110.88C223.155 108.18 219.772 105.645 216.21 103.365L215.873 103.163C213.908 101.91 211.41 101.1 209.34 100.035C208.59 99.66 207.338 99.4725 206.903 98.8425C205.928 97.455 205.065 95.865 204.383 94.185L204.323 94.02C202.483 90.45 200.773 86.8175 199.193 83.1225C198.113 80.25 197.04 77.895 195.833 75.615L196.005 75.9675C190.11 66.075 181.897 58.125 172.095 52.7025L171.773 52.5375C169.455 51.39 166.763 50.4975 163.935 49.995L163.748 49.965C162.18 49.89 160.62 49.7775 159.06 49.71C157.965 49.005 157.02 48.285 156.135 47.49L156.157 47.5125C152.595 45.2625 143.378 40.3875 140.753 46.8375C139.065 50.9025 143.258 54.915 144.705 56.9775C145.86 58.35 146.91 59.8875 147.818 61.515L147.893 61.665C148.335 62.7525 148.455 63.87 148.898 65.0025C149.985 68.3925 151.088 71.175 152.34 73.8675L152.145 73.4025C152.887 74.895 153.66 76.1625 154.523 77.3625L154.462 77.2725C154.965 77.955 155.828 78.2775 156.03 79.4025C155.385 80.76 154.883 82.335 154.605 83.9775L154.59 84.0825C153.78 86.5725 153.308 89.445 153.308 92.4225C153.308 97.08 154.455 101.468 156.48 105.323L156.405 105.173C157.41 106.725 159.795 110.175 162.99 108.855C165.803 107.73 165.18 104.168 165.99 101.033C166.178 100.283 166.058 99.7875 166.44 99.2775V99.42C167.318 101.183 168.203 102.863 169.005 104.625C171.27 107.888 173.963 110.663 177.038 112.95L177.135 113.018C178.635 114.143 179.827 116.093 181.702 116.783V116.595H181.56C181.133 116.13 180.66 115.718 180.142 115.365L180.113 115.35C178.95 114.21 177.87 112.98 176.895 111.683L176.835 111.6C174.39 108.3 172.065 104.565 170.048 100.643L169.83 100.185C168.802 98.22 167.94 96.0975 167.115 94.155C166.74 93.405 166.74 92.28 166.11 91.905C165 93.15 164.003 94.5375 163.17 96.03L163.11 96.15C162.15 98.9475 161.52 102.18 161.355 105.533V105.615C161.1 105.683 161.228 105.615 161.1 105.75C159.098 105.263 158.408 103.185 157.658 101.438C156.638 98.6925 156.045 95.5125 156.045 92.205C156.045 89.535 156.427 86.955 157.147 84.5175L157.103 84.7125C157.545 83.4 159.42 79.26 158.67 78C158.28 76.8075 157.043 76.125 156.353 75.1575C155.535 74.0025 154.785 72.69 154.163 71.3025L154.103 71.1525C152.603 67.65 151.853 63.765 150.225 60.2625C149.243 58.4325 148.208 56.8575 147.045 55.3875L147.098 55.455C145.86 54.0225 144.72 52.425 143.73 50.73L143.648 50.58C143.34 49.8975 142.898 48.765 143.393 48.015C143.483 47.58 143.828 47.2425 144.27 47.175C145.095 46.5 147.42 47.3775 148.23 47.7525C150.608 48.6525 152.655 49.71 154.553 50.955L154.433 50.88C155.31 51.495 156.263 52.6875 157.388 52.995H158.7C160.703 53.4375 162.968 53.13 164.843 53.6775C168.285 54.84 171.263 56.295 174.015 58.08L173.858 57.9825C182.138 63.33 188.768 70.56 193.253 79.1025L193.403 79.41C194.153 80.85 194.482 82.1775 195.165 83.6775C196.477 86.7675 198.098 89.895 199.433 92.88C200.7 96.09 202.2 98.865 203.985 101.423L203.895 101.288C204.833 102.6 208.598 103.283 210.285 103.965C212.063 104.588 213.488 105.18 214.868 105.848L214.59 105.728C216.743 107.04 218.843 108.54 220.868 109.98C221.895 110.693 225.023 112.26 225.21 113.52L225.195 113.543ZM137.265 168.39C137.265 168.503 137.273 168.63 137.273 168.758C137.273 172.943 135.405 176.685 132.45 179.205L132.428 179.22C129.188 181.86 125.01 183.465 120.458 183.465C120.105 183.465 119.752 183.458 119.407 183.435H119.452C113.91 183.36 108.81 181.56 104.632 178.553L104.708 178.605L106.927 174.143C110.145 175.943 113.97 177.06 118.035 177.218H118.08C118.283 177.233 118.515 177.24 118.755 177.24C121.245 177.24 123.563 176.46 125.46 175.133L125.422 175.155C127.14 173.85 128.235 171.81 128.235 169.515C128.235 169.47 128.235 169.433 128.235 169.388V169.395C128.235 166.305 126.082 163.68 122.16 161.475C118.522 159.48 111.262 155.318 111.262 155.318C107.677 153.098 105.33 149.19 105.33 144.735C105.33 144.578 105.33 144.42 105.337 144.263V144.285C105.33 144.143 105.33 143.978 105.33 143.813C105.33 139.95 107.032 136.485 109.725 134.13L109.74 134.115C112.605 131.685 116.348 130.208 120.435 130.208C120.698 130.208 120.952 130.215 121.207 130.223H121.17C121.237 130.223 121.32 130.223 121.402 130.223C126.195 130.223 130.658 131.655 134.378 134.123L134.288 134.07L132.293 138.533C129.36 137.213 125.94 136.418 122.34 136.38H122.325C122.145 136.365 121.943 136.358 121.733 136.358C119.633 136.358 117.697 137.093 116.182 138.323L116.197 138.308C114.78 139.485 113.88 141.248 113.872 143.22C113.872 146.295 116.062 148.935 120.112 151.185C123.795 153.203 131.235 157.463 131.235 157.463C134.895 159.615 137.318 163.53 137.318 168.015C137.318 168.15 137.318 168.293 137.31 168.428V168.405L137.265 168.39ZM152.805 172.373C150.758 168.285 149.565 163.47 149.565 158.378C149.565 157.575 149.595 156.78 149.655 156L149.647 156.105C149.647 143.05 153.615 136.52 161.55 136.515C161.745 136.5 161.978 136.493 162.218 136.493C165.78 136.493 168.908 138.353 170.685 141.158L170.708 141.195C172.74 145.26 173.933 150.06 173.933 155.13C173.933 155.91 173.903 156.683 173.85 157.448L173.858 157.343C173.858 170.503 169.89 177.088 161.955 177.098C161.753 177.113 161.52 177.12 161.287 177.12C157.725 177.12 154.59 175.26 152.813 172.455L152.79 172.418L152.805 172.373ZM183.66 184.013L174.135 179.325C175.005 178.598 175.785 177.833 176.505 177.008L176.528 176.985C180.375 171.795 182.685 165.263 182.685 158.198C182.685 157.38 182.655 156.57 182.595 155.768L182.603 155.873C182.603 138.723 175.87 130.143 162.405 130.133C162.105 130.118 161.753 130.11 161.4 130.11C155.648 130.11 150.48 132.638 146.962 136.65L146.948 136.673C143.115 141.863 140.813 148.388 140.813 155.453C140.813 156.248 140.843 157.035 140.903 157.815L140.895 157.71C140.827 158.468 140.79 159.353 140.79 160.245C140.79 166.8 142.845 172.875 146.34 177.863L146.273 177.765C149.64 181.35 154.418 183.585 159.705 183.585C160.2 183.585 160.688 183.563 161.168 183.525L161.1 183.533C161.168 183.533 161.257 183.533 161.34 183.533C163.672 183.533 165.93 183.195 168.068 182.573L167.902 182.618L180.322 189.855L183.698 184.028L183.66 184.013ZM214.77 182.745H190.118V130.92H198.413V176.378H214.77V182.745ZM99.2625 144.51C97.11 160.14 92.1825 174.248 84.975 186.885L85.275 186.308C82.3875 191.865 76.9275 195.735 70.515 196.358L70.44 196.365C68.4975 196.26 66.69 195.795 65.0475 195.038L65.1375 195.075V190.448C66.165 190.605 67.35 190.695 68.5575 190.695C68.625 190.695 68.6925 190.695 68.7675 190.695C68.8875 190.703 69.015 190.703 69.15 190.703C71.3175 190.703 73.305 189.915 74.835 188.603L74.82 188.61C76.47 187.253 77.5275 185.228 77.5875 182.948C77.19 179.663 76.4325 176.663 75.345 173.835L75.435 174.09L65.9325 144.51H74.46L81.2775 166.628C82.4925 169.748 83.1975 173.363 83.1975 177.135C83.1975 177.143 83.1975 177.15 83.1975 177.15C86.8125 167.685 89.5575 156.645 90.9525 145.193L91.02 144.503L99.2625 144.51ZM61.6125 182.745H52.9275C52.6825 168.94 51.84 155.163 50.4 141.413H50.325L37.11 182.745H30.5025L17.3775 141.413H17.2875C16.2625 155.168 15.6525 168.945 15.4575 182.745H7.5375C8.0525 164.32 9.3325 147.043 11.3775 130.913H22.155L34.665 169.005H34.74L47.3625 130.913H57.6225C59.8925 149.798 61.23 167.075 61.635 182.745H61.6125ZM161.287 59.0925C161.272 59.0925 161.25 59.0925 161.228 59.0925C160.335 59.0925 159.473 59.205 158.648 59.415L158.723 59.4V59.52H158.85C159.495 60.48 160.155 61.3125 160.868 62.0925L160.853 62.0775C161.355 63.0825 161.79 64.08 162.293 65.0775L162.42 64.935C163.238 64.29 163.755 63.3 163.755 62.19C163.755 62.055 163.748 61.9275 163.733 61.7925V61.8075C163.358 61.365 163.305 60.93 162.983 60.495C162.608 59.865 161.805 59.5575 161.295 59.0625L161.287 59.0925Z" fill="#444444"/>
</svg>
