<svg width="380" height="125" viewBox="0 0 380 125" fill="none" xmlns="http://www.w3.org/2000/svg">
<g clip-path="url(#clip0_65_480)">
<path d="M98.2784 0C98.1294 0 97.9804 0 97.8314 0C95.3974 0.0496732 92.8144 0.630849 90.1817 1.60444C84.8915 3.54667 79.1543 7.15046 73.3177 12.232C72.1752 13.228 71.0078 14.2959 69.8405 15.4136C69.0706 14.6685 68.3007 13.9731 67.5307 13.2776C61.3464 7.79372 55.2614 3.9366 49.698 1.85778C46.9163 0.819608 44.2092 0.196209 41.6758 0.136601C39.1425 0.0745096 36.783 0.571242 34.7216 1.77333C30.698 4.09059 28.5124 8.65556 27.5686 14.1966C26.6 19.7699 26.8484 26.5255 28.3386 34.1255C28.6366 35.6405 28.9843 37.1804 29.3817 38.7699C27.5935 39.2667 25.8549 39.8131 24.2157 40.3843C16.9808 42.8928 11.1293 46.0719 6.92693 49.6484C2.72457 53.2497 0 57.4222 0 61.9673C0 66.6614 2.86366 71.0078 7.29203 74.783C11.7204 78.583 17.8997 81.9608 25.532 84.5438C26.749 84.966 27.9908 85.3634 29.2824 85.7359C28.8601 87.4248 28.4876 89.0889 28.1895 90.7033C26.7739 98.2288 26.6 104.885 27.5935 110.324C28.6118 115.763 30.8719 120.209 34.8209 122.469C38.8693 124.829 44.0601 124.506 49.5739 122.569C55.0627 120.631 61.0484 116.956 67.1085 111.641C68.0771 110.796 69.0458 109.902 70.0144 108.958C71.281 110.175 72.5477 111.342 73.8144 112.41C79.6013 117.403 85.264 120.88 90.4797 122.718C95.6954 124.556 100.688 124.829 104.612 122.544C108.685 120.184 110.995 115.54 112.063 109.803C113.131 104.065 112.932 97.0366 111.367 89.1386C111.119 87.9216 110.846 86.6549 110.548 85.4131C111.417 85.1399 112.286 84.8667 113.131 84.5935C120.979 82.0105 127.362 78.6823 131.957 74.9072C136.552 71.132 139.532 66.7608 139.532 61.9673C139.532 57.3477 136.676 53.1752 132.354 49.549C128.033 45.9477 122.047 42.7686 114.72 40.2601C113.28 39.7634 111.79 39.2915 110.25 38.8444C110.498 37.8261 110.746 36.8078 110.945 35.7895C112.609 27.6928 112.907 20.4902 111.939 14.6213C110.945 8.7549 108.66 3.98627 104.512 1.59203C102.65 0.50915 100.514 0.0173856 98.2784 0ZM97.8562 5.99804C99.4209 5.9583 100.663 6.24641 101.532 6.75556C103.42 7.83595 105.233 10.7418 106.052 15.5899C106.872 20.4654 106.648 27.0222 105.084 34.5725C104.885 35.4915 104.686 36.4105 104.463 37.3542C98.7007 36.0131 92.417 35.0196 85.8105 34.3987C82.0105 28.9843 78.0366 24.017 74.0131 19.6706C75.1059 18.6448 76.149 17.6514 77.217 16.7324C82.6562 12.011 87.8967 8.79464 92.2431 7.20013C94.4039 6.40288 96.2915 6.03778 97.8562 5.99804ZM41.0301 6.13464C41.2039 6.13464 41.4275 6.13464 41.6261 6.13464C43.2902 6.18183 45.302 6.5817 47.6118 7.44105C52.2314 9.16471 57.8196 12.6319 63.5569 17.7482C64.2523 18.3691 64.9477 19.0149 65.6431 19.6954C61.6196 24.017 57.6209 28.9595 53.7712 34.3739C47.1895 34.9948 40.9059 35.9882 35.1686 37.2797C34.7961 35.8144 34.4732 34.3739 34.2 32.983C32.8091 25.9294 32.6601 19.7699 33.4301 15.2149C34.2248 10.6624 35.9386 7.95516 37.702 6.93189C38.5216 6.45752 39.6392 6.16693 41.0301 6.13216V6.13464ZM69.8405 23.9673C72.5974 26.9229 75.3294 30.251 78.0366 33.8523C75.3294 33.7281 72.5477 33.6536 69.766 33.6536C67.0091 33.6536 64.2771 33.7281 61.5699 33.8523C64.302 30.251 67.0837 26.9477 69.8405 23.9673ZM182.599 29.8784V86.8039H189.702V64.1778H201.052L215.557 86.8039H223.927L208.553 63.5817C216.327 62.8863 223.331 57.2732 223.331 47.0157C223.331 36.5346 215.905 29.8784 205.473 29.8784H182.599ZM363.111 34.2993V45.5752H356.405V51.2131H363.111V78.1856C363.111 84.3203 366.34 87.8222 372.301 87.8222C376.026 87.8222 378.51 86.7046 380 85.1647L378.013 80.3961C377.268 81.3399 375.529 82.1098 373.791 82.1098C371.059 82.1098 369.569 79.8745 369.569 76.8196V51.2131H378.013V45.5752H369.569V34.2993H363.111ZM189.702 36.1869H204.629C211.359 36.1869 215.979 40.6327 215.979 47.0157C215.979 53.4235 211.359 57.9438 204.629 57.9438H189.702V36.1869ZM69.766 39.6144C74.1124 39.6144 78.3595 39.7882 82.4824 40.0863C84.817 43.5137 87.0771 47.115 89.2379 50.8405C91.3987 54.566 93.4105 58.3163 95.2235 62.017C93.4105 65.7673 91.4235 69.5673 89.2379 73.3176C87.0771 77.068 84.8418 80.6693 82.532 84.1216C78.3843 84.4196 74.1124 84.5686 69.766 84.5686C65.4693 84.5686 61.2471 84.4196 57.1242 84.1712C54.7895 80.7189 52.5046 77.1176 50.319 73.3673C48.1333 69.617 46.1464 65.8418 44.3582 62.1163C46.1464 58.366 48.1333 54.6157 50.2941 50.8654C52.4549 47.115 54.7399 43.5137 57.0745 40.0863C61.1974 39.7882 65.4444 39.6144 69.766 39.6144ZM49.4 40.8562C47.9346 43.1412 46.519 45.4758 45.1281 47.885C43.7373 50.2941 42.4458 52.7033 41.2039 55.0876C39.4405 50.9647 37.9752 46.9163 36.7582 43.0418C40.732 42.1477 44.9542 41.4274 49.4 40.8562ZM90.132 40.881C94.6026 41.4275 98.8745 42.1974 102.848 43.0915C101.656 46.966 100.141 50.9895 98.3778 55.1124C97.1111 52.7033 95.7699 50.2693 94.3791 47.8601C92.9882 45.4758 91.5725 43.1412 90.132 40.881ZM30.9712 44.5072C32.7098 50.1451 34.9948 56.081 37.7765 62.1163C34.9451 68.251 32.6353 74.2614 30.8719 79.9739C29.7046 79.651 28.5621 79.2784 27.4444 78.9059C20.3908 76.4967 14.8225 73.3922 11.169 70.2627C7.51307 67.1333 5.96078 64.1033 5.96078 61.9673C5.96078 59.9059 7.37895 57.1242 10.8014 54.1935C14.2214 51.2627 19.4719 48.332 26.1778 45.9974C27.6928 45.4758 29.3072 44.9791 30.9712 44.5072ZM248.614 44.5569C236.817 44.5569 228.273 54.1935 228.273 66.1399C228.273 79.0301 237.065 87.8222 249.111 87.8222C255.817 87.8222 261.529 85.6118 265.503 81.5137L262.523 77.3163C259.294 80.6444 254.575 82.532 249.856 82.532C240.99 82.532 235.525 76.0497 235.029 68.2758H268.235V66.6614C268.235 54.268 261.033 44.5569 248.614 44.5569ZM292.824 44.5569C286.118 44.5569 280.902 46.7673 276.431 51.3869L279.412 55.8078C283.137 51.8837 287.111 50.0954 292.078 50.0954C298.039 50.0954 302.51 53.2497 302.51 58.8131V66.2392C299.033 62.3895 294.314 60.6013 288.85 60.6013C281.895 60.6013 274.444 64.9477 274.444 74.1621C274.444 83.1281 281.895 87.8222 288.85 87.8222C294.314 87.8222 299.033 85.8601 302.51 82.1098V86.8039H308.719V58.4654C308.719 48.481 301.516 44.5569 292.824 44.5569ZM338.523 44.5569C326.353 44.5569 317.908 53.9451 317.908 66.1399C317.908 78.434 326.353 87.8222 338.523 87.8222C345.974 87.8222 350.444 84.7425 353.673 80.6444L349.451 76.7203C346.719 80.3961 343.242 82.1098 339.02 82.1098C330.078 82.1098 324.614 75.2797 324.614 66.1399C324.614 57 330.078 50.2693 339.02 50.2693C343.242 50.2693 346.719 51.8837 349.451 55.634L353.673 51.7098C350.444 47.6118 345.974 44.5569 338.523 44.5569ZM108.66 44.5817C110.076 45.0039 111.467 45.451 112.783 45.898C119.588 48.2327 125.003 51.1634 128.554 54.1438C132.081 57.0993 133.571 59.9307 133.571 61.9673C133.571 64.1281 131.982 67.1582 128.182 70.2876C124.357 73.417 118.57 76.5216 111.268 78.9555C110.498 79.2039 109.728 79.4523 108.933 79.6758C107.145 74.0131 104.736 68.0523 101.855 62.017C104.637 56.0562 106.922 50.1948 108.66 44.5817ZM69.766 49.5242C66.4673 49.5288 63.305 50.8412 60.9725 53.1738C58.6399 55.5063 57.3275 58.6686 57.3229 61.9673C57.3209 65.2703 58.6304 68.439 60.9637 70.7769C63.297 73.1148 66.463 74.4307 69.766 74.4353C71.4036 74.4363 73.0253 74.1144 74.5385 73.4882C76.0516 72.862 77.4264 71.9436 78.5844 70.7857C79.7423 69.6277 80.6607 68.2529 81.2869 66.7398C81.9131 65.2266 82.235 63.6049 82.234 61.9673C82.2294 58.6643 80.9135 55.4983 78.5756 53.165C76.2377 50.8317 73.069 49.5222 69.766 49.5242ZM248.366 49.8471C257.804 49.8471 261.778 57.4471 262.026 63.5817H235.029C235.352 57.2732 239.723 49.8471 248.366 49.8471ZM291.085 65.1961C295.556 65.1961 300.026 66.9098 302.51 70.3124V78.0863C300.026 81.5137 295.556 83.2026 291.085 83.2026C285.124 83.2026 280.902 79.4523 280.902 74.2614C280.902 68.9464 285.124 65.1961 291.085 65.1961ZM98.4523 68.9216C100.29 73.1438 101.88 77.2667 103.122 81.1908C99.0732 82.1098 94.702 82.8549 90.132 83.4013C91.5725 81.0915 93.0131 78.7072 94.4039 76.298C95.8196 73.8392 97.1608 71.3804 98.4523 68.9216ZM41.2039 69.1203C42.4458 71.5294 43.7621 73.9386 45.1529 76.3477C46.5686 78.7817 48.034 81.166 49.5242 83.5007C45.0039 83.0039 40.6824 82.3085 36.6837 81.4392C37.9007 77.4902 39.4157 73.3673 41.2039 69.1203ZM104.761 86.9281C105.059 88.0706 105.307 89.2131 105.531 90.3059C106.971 97.6078 107.071 103.991 106.201 108.71C105.332 113.454 103.469 116.31 101.631 117.378C99.8431 118.421 96.7137 118.595 92.4667 117.105C88.2196 115.59 83.0536 112.51 77.6889 107.89C76.5216 106.897 75.3543 105.829 74.1869 104.686C78.1856 100.315 82.1098 95.298 85.885 89.834C92.5908 89.2379 98.949 88.2693 104.761 86.9281ZM35.0693 87.2013C40.881 88.4928 47.2144 89.3869 53.8706 89.9085C57.7451 95.3725 61.7935 100.365 65.8418 104.711C64.9477 105.58 64.0784 106.4 63.1843 107.17C57.5961 112.063 52.1072 115.341 47.5869 116.931C43.0418 118.545 39.6392 118.371 37.8013 117.303C36.0131 116.285 34.2993 113.652 33.4549 109.231C32.6353 104.81 32.7346 98.8 34.051 91.8209C34.3242 90.3307 34.6719 88.7908 35.0693 87.2013ZM78.1856 90.3307C75.4784 94.0065 72.7464 97.3843 70.0144 100.414C67.2078 97.3843 64.3765 94.0065 61.6196 90.3804C64.302 90.4797 67.0091 90.5294 69.766 90.5294C72.5974 90.5294 75.4039 90.4549 78.1856 90.3307Z" fill="#444444"/>
</g>
<defs>
<clipPath id="clip0_65_480">
<rect width="380" height="124.177" fill="white"/>
</clipPath>
</defs>
</svg>
