<?xml version="1.0" encoding="iso-8859-1"?>
<!-- Uploaded to: SVG Repo, www.svgrepo.com, Generator: SVG Repo Mixer Tools -->
<svg height="800px" width="800px" version="1.1" id="Layer_1" xmlns="http://www.w3.org/2000/svg" xmlns:xlink="http://www.w3.org/1999/xlink" 
	 viewBox="0 0 512.001 512.001" xml:space="preserve">
<path style="fill:#222222;" d="M213.903,319.01v20.35c0,6.799-4.088,12.931-10.364,15.547l-67.232,28.014
	c-14.204,5.919-23.456,22.005-23.456,37.392v81.081h286.314v-81.081c0-15.387-9.253-31.474-23.456-37.392l-67.232-28.014
	c-6.276-2.615-10.364-8.748-10.364-15.547v-20.35H213.903z"/>
<path style="fill:#fadfd4;" d="M350.027,199.07v-30.439c0-51.823-42.012-93.835-93.835-93.835
	c-51.824,0-93.835,42.012-93.835,93.835h-0.368v30.439c-12.923,0-23.4,10.477-23.4,23.4c0,12.923,10.477,23.4,23.4,23.4v17.47
	c1.126,14.733,8.31,27.849,19.189,35.034l56.567,32.338c11.359,7.502,25.17,7.502,36.529,0l56.398-32.338
	c10.878-7.184,18.23-20.301,19.357-35.034v-17.47c12.923,0,23.4-10.477,23.4-23.4C373.427,209.547,362.95,199.07,350.027,199.07z"/>
<path style="fill:#222222;" d="M163.26,155.612h185.864c-6.339-45.661-45.527-80.817-92.932-80.817
	C208.786,74.795,169.599,109.951,163.26,155.612z"/>
<path style="opacity:0.5;fill:#7dc6fa;enable-background:new    ;" d="M308.933,183.837H203.185
	c-22.697,0-41.094,18.397-41.094,41.094s18.396,41.094,41.094,41.094c22.696,0,41.094-18.397,41.094-41.094h23.561
	c0,22.696,18.397,41.094,41.094,41.094c22.697,0,41.094-18.397,41.094-41.094C350.027,202.234,331.631,183.837,308.933,183.837z"/>
<path style="fill:#222222;" d="M501.553,371.224V236.662c0-25.231-20.643-45.873-45.873-45.873l0,0
	c-25.231,0-45.873,20.643-45.873,45.873v134.562c0,0,13.245-15.332,28.578,0c10.332-10.332,20.891-9.505,30.561,0
	C474.898,363.206,493.247,362.875,501.553,371.224z"/>
<path style="fill:#dddddd;" d="M112.851,501.394V300.819c0-28.128-23.015-51.143-51.143-51.143l0,0
	c-28.128,0-51.143,23.015-51.143,51.143v200.574H112.851z"/>
<g>
	<circle style="fill:#dddddd;" cx="40.867" cy="155.612" r="30.305"/>
	<circle style="fill:#dddddd;" cx="104.591" cy="72.332" r="19.823"/>
	<circle style="fill:#dddddd;" cx="34.515" cy="34.672" r="24.069"/>
</g>
<path d="M501.502,511.839h-0.137c-5.769,0-10.447-4.677-10.447-10.447s4.678-10.447,10.447-10.447h0.137
	c5.769,0,10.447,4.677,10.447,10.447S507.272,511.839,501.502,511.839z"/>
<path d="M455.68,180.342c-31.056,0-56.321,25.265-56.321,56.32v134.562c0,4.421,2.683,8.483,6.85,9.963
	c1.184,0.42,2.399,0.626,3.594,0.626c2.987,0,5.861-1.282,7.856-3.696c0.392-0.399,3.247-3.195,6.39-3.26
	c2.07-0.078,4.415,1.219,6.948,3.753c4.08,4.08,10.693,4.08,14.775,0c5.852-5.853,9.852-5.833,15.852,0.063
	c2.155,2.12,5.133,3.199,8.133,2.966c3.013-0.235,5.776-1.761,7.577-4.188c0.387-0.498,2.452-1.663,6.068-1.885
	c4.302-0.266,8.716,0.982,10.747,3.025c2.985,2.999,7.484,3.901,11.391,2.288c3.91-1.614,6.461-5.427,6.461-9.657V236.66
	C512,205.607,486.736,180.342,455.68,180.342z M491.107,355.157c-3.036-0.498-6.206-0.646-9.417-0.415
	c-0.778,0.056-1.541,0.143-2.297,0.244v-24.406c0-5.77-4.678-10.447-10.447-10.447c-5.769,0-10.447,4.677-10.447,10.447v23.172
	c-1.633-0.311-3.27-0.486-4.907-0.486c-1.59,0-3.179,0.165-4.763,0.46v-23.145c0-5.77-4.678-10.447-10.447-10.447
	c-5.769,0-10.447,4.677-10.447,10.447v23.667c-1.73-0.255-3.324-0.318-4.733-0.266c-1.013,0.037-1.997,0.131-2.951,0.273V236.662
	c0-19.534,15.892-35.426,35.427-35.426c19.534,0,35.426,15.892,35.426,35.426L491.107,355.157L491.107,355.157z"/>
<path d="M468.945,286.201c-5.769,0-10.447,4.677-10.447,10.447v0.137c0,5.77,4.678,10.447,10.447,10.447s10.447-4.677,10.447-10.447
	v-0.137C479.392,290.877,474.715,286.201,468.945,286.201z"/>
<path d="M438.385,286.201c-5.769,0-10.447,4.677-10.447,10.447v0.137c0,5.77,4.678,10.447,10.447,10.447s10.447-4.677,10.447-10.447
	v-0.137C448.832,290.877,444.154,286.201,438.385,286.201z"/>
<path d="M83.691,333.203h-0.137c-5.769,0-10.447-4.677-10.447-10.447s4.678-10.447,10.447-10.447h0.137
	c5.769,0,10.447,4.677,10.447,10.447S89.46,333.203,83.691,333.203z"/>
<path d="M83.691,458.562h-0.137c-5.769,0-10.447-4.677-10.447-10.447s4.678-10.447,10.447-10.447h0.137
	c5.769,0,10.447,4.677,10.447,10.447S89.46,458.562,83.691,458.562z"/>
<path d="M40.868,196.362c-22.47,0-40.75-18.28-40.75-40.75s18.28-40.75,40.75-40.75s40.75,18.28,40.75,40.75
	S63.338,196.362,40.868,196.362z M40.868,135.755c-10.948,0-19.857,8.908-19.857,19.857s8.908,19.857,19.857,19.857
	s19.857-8.908,19.857-19.857S51.817,135.755,40.868,135.755z"/>
<path d="M104.596,102.599c-16.692,0-30.27-13.579-30.27-30.27s13.578-30.27,30.27-30.27s30.27,13.579,30.27,30.27
	S121.288,102.599,104.596,102.599z M104.596,62.953c-5.17,0-9.377,4.206-9.377,9.377s4.206,9.377,9.377,9.377
	s9.377-4.206,9.377-9.377S109.766,62.953,104.596,62.953z"/>
<path d="M34.515,69.192C15.483,69.192,0,53.708,0,34.676S15.483,0.161,34.515,0.161s34.515,15.484,34.515,34.515
	S53.548,69.192,34.515,69.192z M34.515,21.054c-7.511,0-13.622,6.111-13.622,13.622s6.111,13.622,13.622,13.622
	s13.622-6.111,13.622-13.622S42.027,21.054,34.515,21.054z"/>
<path d="M294.106,212.024c-6.438,0-11.677,5.238-11.677,11.677c0,6.438,5.239,11.676,11.677,11.676
	c6.438,0,11.676-5.238,11.676-11.676C305.783,217.262,300.545,212.024,294.106,212.024z"/>
<path d="M217.91,212.024c-6.438,0-11.676,5.238-11.676,11.677c0,6.438,5.238,11.676,11.676,11.676
	c6.438,0,11.677-5.238,11.677-11.676C229.586,217.262,224.348,212.024,217.91,212.024z"/>
<path d="M467.57,490.947h-57.958v-70.634c0-20.364-12.289-39.704-29.883-47.036l-67.232-28.012c-2.39-0.996-3.935-3.313-3.935-5.903
	v-16.266l27.307-15.657c0.19-0.11,0.377-0.225,0.56-0.346c13.672-9.03,22.65-25.087,24.016-42.955
	c0.021-0.264,0.03-0.531,0.03-0.796v-8.673c13.566-4.413,23.399-17.178,23.399-32.197s-9.833-27.785-23.399-32.197v-21.642
	c0-57.501-46.781-104.282-104.282-104.282c-56.533,0-102.703,45.218-104.242,101.385c-0.265,0.919-0.407,1.892-0.407,2.897v21.642
	c-13.566,4.413-23.399,17.178-23.399,32.197s9.833,27.785,23.399,32.197v8.673c0,0.265,0.01,0.532,0.03,0.796
	c0.273,3.561,0.853,7.043,1.698,10.415h-4.227c-11.52,0-20.893,9.373-20.893,20.897l0.009,21.695l-0.002,56.209
	c0,0.63,0.066,1.243,0.172,1.843c-1.741,0.95-3.425,2.007-5.032,3.184v-77.561c0-30.398-22.144-55.707-51.143-60.685V222.47
	c0-5.77-4.678-10.447-10.447-10.447s-10.447,4.677-10.447,10.447v17.664c-29,4.978-51.143,30.287-51.143,60.685v199.564
	c-0.032,0.332,0,0.652,0,0.993c0,5.77,4.627,10.463,10.395,10.463h0.051h0.086h102.201h284.185h2.128h68.404
	c5.769,0,10.447-4.677,10.447-10.447C478.016,495.624,473.338,490.947,467.57,490.947z M362.981,222.47
	c0,3.036-1.057,5.825-2.813,8.037c0.197-1.832,0.306-3.692,0.306-5.576c0-4.014-0.476-7.914-1.349-11.666
	C361.504,215.613,362.981,218.871,362.981,222.47z M151.973,230.671c-1.833-2.235-2.937-5.091-2.937-8.201
	c0-3.662,1.534-6.965,3.983-9.324c-0.89,3.787-1.375,7.728-1.375,11.784C151.645,226.871,151.762,228.784,151.973,230.671z
	 M102.405,420.311v70.634H44.447c0,0-0.006,0-0.01,0H21.011v-32.384h28.747c5.769,0,10.447-4.677,10.447-10.447
	s-4.678-10.447-10.447-10.447H21.011V333.203h28.747c5.769,0,10.447-4.677,10.447-10.447s-4.678-10.447-10.447-10.447H21.011
	v-11.491c0-22.44,18.256-40.697,40.697-40.697s40.697,18.256,40.697,40.697V420.311z M325.165,289.489l-56.088,32.16
	c-0.19,0.11-0.377,0.225-0.56,0.346c-7.833,5.172-17.181,5.172-25.014,0c-0.187-0.123-0.377-0.241-0.572-0.352l-45.827-26.198
	h43.395c3.789,4.345,9.35,7.108,15.555,7.108c11.389,0,20.654-9.266,20.654-20.655s-9.265-20.655-20.654-20.655
	c-8.799,0-16.31,5.541-19.281,13.309h-19.661c18.388-5.168,32.649-20.297,36.551-39.175h4.797
	c4.843,23.427,25.635,41.094,50.476,41.094c11.245,0,21.651-3.63,30.132-9.765C337.322,276.241,332.218,284.713,325.165,289.489z
	 M308.934,255.577c-16.899,0-30.647-13.749-30.647-30.647c0-5.77-4.678-10.447-10.447-10.447h-23.562
	c-5.769,0-10.447,4.677-10.447,10.447c0,16.899-13.748,30.647-30.647,30.647s-30.647-13.749-30.647-30.647
	c0-16.898,13.748-30.647,30.647-30.647h105.75c16.899,0,30.647,13.749,30.647,30.647
	C339.58,241.829,325.833,255.577,308.934,255.577z M189.267,274.552h-14.11c-0.991-2.503-1.751-5.162-2.235-7.938
	C177.797,270.163,183.316,272.877,189.267,274.552z M256.192,85.242c37.833,0,69.842,25.335,80.005,59.924h-160.01
	C186.35,110.577,218.358,85.242,256.192,85.242z M172.435,171.386c0.239-0.878,0.368-1.802,0.368-2.756
	c0-0.863,0.04-1.716,0.066-2.572h166.647c0.026,0.857,0.066,1.71,0.066,2.572v14.891c-8.572-6.361-19.177-10.131-30.647-10.131
	h-105.75c-11.515,0-22.159,3.797-30.749,10.204V171.386z M163.149,295.445c3.46,4.583,7.579,8.547,12.272,11.646
	c0.187,0.123,0.377,0.24,0.572,0.352l27.463,15.7v16.218c0,2.59-1.545,4.907-3.935,5.903l-50.471,21.029l0.002-49.152l-0.009-21.697
	H163.149z M123.298,420.311c0-11.774,7.32-23.704,17.027-27.749l67.232-28.014c10.201-4.252,16.792-14.138,16.792-25.189v-4.274
	l7.938,4.538c7.332,4.763,15.527,7.143,23.722,7.143c8.197,0,16.394-2.383,23.728-7.148l7.93-4.547v4.287
	c0,11.052,6.592,20.939,16.793,25.19l67.232,28.012c9.706,4.044,17.026,15.974,17.026,27.749v70.634h-265.42V420.311z"/>
</svg>