<?xml version="1.0" encoding="utf-8"?>
<!-- Svg Vector Icons : http://www.onlinewebfonts.com/icon -->
<!DOCTYPE svg PUBLIC "-//W3C//DTD SVG 1.1//EN" "http://www.w3.org/Graphics/SVG/1.1/DTD/svg11.dtd">
<svg version="1.1" xmlns="http://www.w3.org/2000/svg" xmlns:xlink="http://www.w3.org/1999/xlink" x="0px" y="0px" viewBox="0 0 256 256" enable-background="new 0 0 256 256" xml:space="preserve">
<metadata> Svg Vector Icons : http://www.onlinewebfonts.com/icon </metadata>
<g><g><path fill="#000000" d="M13.4,86.3l110.9,63.3c1,0.6,2.1,0.9,3.2,0.9c1.2,0,2.3-0.3,3.4-0.9c0,0,0.1,0,0.1-0.1l111.3-63.3c2.2-1.2,3.3-3.5,3.3-5.9c0-2.3-1.2-4.6-3.3-5.9L131.1,11.1c0,0-0.1,0-0.1-0.1c-1-0.6-2.2-0.9-3.4-0.9c-1.1,0-2.2,0.3-3.2,0.9L13.4,74.2c-2.2,1.3-3.4,3.7-3.3,6C10,82.6,11.2,85,13.4,86.3z M127.6,26l95.2,54.2l-95.2,54.2l-95-54.2L127.6,26z"/><path fill="#000000" d="M235,168.8L127.6,230L21,168.8c-3.5-2-8-0.8-10.1,2.7c-2,3.5-0.8,8,2.7,10.1l110.2,63.3c1.1,0.7,2.4,1,3.7,1c1.3,0,2.5-0.3,3.7-1l111-63.3c3.5-2,4.8-6.5,2.7-10C243,168.1,238.5,166.8,235,168.8z"/><path fill="#000000" d="M13.7,134.5l110.2,63.3c1.1,0.7,2.4,1,3.7,1c1.3,0,2.5-0.3,3.7-1l111-63.3c3.5-2,4.8-6.5,2.7-10c-2-3.5-6.5-4.8-10-2.7l-107.4,61.2L21,121.7c-3.5-2-8-0.8-10.1,2.7C9,127.9,10.2,132.4,13.7,134.5z"/></g></g>
</svg>